<?xml version="1.0" standalone="no"?>
<!DOCTYPE svg PUBLIC "-//W3C//DTD SVG 20010904//EN"
 "http://www.w3.org/TR/2001/REC-SVG-20010904/DTD/svg10.dtd">
<svg version="1.0" xmlns="http://www.w3.org/2000/svg"
 width="1167.000000pt" height="1280.000000pt" viewBox="0 0 1167.000000 1280.000000"
 preserveAspectRatio="xMidYMid meet">
<metadata>
Created by potrace 1.15, written by Peter Selinger 2001-2017
</metadata>
<g transform="translate(0.000000,1280.000000) scale(0.100000,-0.100000)"
fill="#000000" stroke="none">
<path d="M4855 12789 c-393 -30 -778 -117 -1186 -267 l-125 -46 -39 -59 c-21
-33 -89 -112 -150 -177 -67 -68 -124 -138 -139 -168 -55 -109 -76 -258 -140
-1007 -59 -684 -76 -1014 -83 -1595 -7 -603 10 -1005 63 -1448 9 -74 14 -135
12 -137 -1 -2 -89 -35 -194 -74 -1007 -371 -1972 -861 -2534 -1286 -208 -158
-340 -297 -340 -359 0 -9 11 -23 25 -32 22 -14 44 -16 143 -11 209 10 514 77
1712 373 300 74 658 162 795 195 138 34 340 83 449 110 110 27 201 48 203 46
2 -3 12 -76 23 -163 18 -147 23 -169 73 -293 42 -103 67 -150 109 -202 l55
-67 12 -164 12 -163 -70 -209 -70 -209 82 6 c45 4 150 9 233 13 l152 7 7 -52
c11 -82 -2 -91 -136 -91 -142 0 -139 3 -139 -151 0 -201 -44 -433 -131 -695
-28 -84 -56 -160 -63 -170 -7 -9 -51 -28 -97 -41 -103 -29 -214 -77 -317 -134
-96 -55 -236 -191 -352 -344 -45 -60 -110 -138 -143 -171 l-59 -62 28 -6 c31
-6 239 -25 564 -51 382 -32 639 -74 846 -141 169 -54 395 -168 544 -272 258
-181 572 -504 820 -842 47 -64 109 -136 139 -160 30 -25 246 -234 481 -466
495 -490 552 -540 756 -675 213 -141 363 -190 679 -219 307 -29 610 -146 1021
-391 161 -96 180 -105 414 -185 135 -46 248 -84 253 -84 28 0 -31 173 -174
512 -218 517 -233 569 -249 833 -31 548 -119 888 -301 1159 -117 175 -308 329
-519 416 -62 26 -535 146 -1108 280 l-91 22 110 220 c100 199 112 219 132 215
12 -3 92 -17 177 -31 538 -89 892 -72 1135 57 84 45 182 146 225 232 33 69 34
72 34 200 1 147 -12 212 -57 298 l-30 57 40 88 c57 123 66 157 60 222 -6 66
-24 105 -84 178 -23 30 -43 58 -43 64 0 5 23 34 51 63 l51 54 -36 202 c-20
112 -34 204 -32 206 2 3 113 22 245 44 154 25 256 46 280 59 75 38 131 136
131 229 0 58 -322 533 -578 851 -113 140 -211 262 -219 271 -11 14 -6 20 42
54 86 59 149 158 190 298 15 53 15 60 -10 184 -14 70 -41 188 -60 262 -19 74
-33 136 -31 138 5 6 340 67 1076 199 1547 276 1957 358 2140 431 117 47 140
75 99 119 -94 100 -799 211 -1619 254 -483 25 -1237 22 -1756 -7 l-112 -6 -27
43 c-51 81 -204 374 -274 525 -211 455 -379 921 -651 1805 l-131 424 -56 75
c-248 329 -616 606 -918 691 -82 23 -208 71 -422 159 -344 141 -489 166 -828
140z"/>
</g>
</svg>
